<svg width="600" height="76.6" xmlns="http://www.w3.org/2000/svg" xmlns:svg="http://www.w3.org/2000/svg" enable-background="new 0 0 600 76.6" version="1.1" xml:space="preserve">
  <style type="text/css">
    <style type="text/css">
.st0{fill:none;stroke:#F0F0F0;stroke-miterlimit:10;}
.st1{fill:none;stroke:#F0F0F0;stroke-width:0.93;stroke-miterlimit:10;}
.st2{fill:#6600ff;}  /* Bright red for text */
.st3{fill:#ff0000;}  /* Darker red for metro body */
.st4{fill:#ff1a1a;}  /* White */
.st5{fill:#668cff;}  /* Light red highlights */
.st6{fill:none;stroke:#66ffff;stroke-width:1.8074;stroke-miterlimit:10;}  /* Pink-red stroke */
.st7{fill:none;stroke:#66ffff;stroke-width:0.794;stroke-miterlimit:10;}  /* Dark red stroke */
.st8{fill:#b30000;}  /* Light gray for accents */

/* Gradient for metro body */
#metro-body {
  fill: url(#metro-gradient);
}
</style>
#bridge_1_{
.st0 { fill: none; stroke: black; stroke-miterlimit: 10; }
.st1 { fill: none; stroke: black; stroke-width: 0.93; stroke-miterlimit: 10; }
}
	#train_1_{
  .st2{fill:#ffcccc;}  /* White text */
	transform: translateX(-100%);
    -webkit-animation:linear infinite;
    -webkit-animation-name: run;
    -webkit-animation-duration: 19s;
	}     
	@keyframes run {
		0% { transform: translateX(-100%);  }
  30% { transform: translateX(100%);  }
  55% { transform: translateX(100%);  }
  85% { transform: translateX(-100%);}
  100% { transform: translateX(-100%);  }
}
  </style>
  <g class="layer">
    <title>Layer 1</title>
    <g id="bridge">
      <g id="bridge_1_">
        <line class="st0" id="svg_1" x1="0" x2="600" y1="26.6" y2="26.6"/>
        <line class="st1" id="svg_2" x1="16" x2="584" y1="39.1" y2="39.1"/>
        <line class="st1" id="svg_3" x1="35.5" x2="35.5" y1="38.6" y2="76.6"/>
        <line class="st1" id="svg_4" x1="49.5" x2="49.5" y1="38.6" y2="76.6"/>
        <line class="st1" id="svg_5" x1="138.1" x2="138.1" y1="38.6" y2="76.6"/>
        <line class="st1" id="svg_6" x1="152.1" x2="152.1" y1="38.6" y2="76.6"/>
        <line class="st1" id="svg_7" x1="240.7" x2="240.7" y1="38.6" y2="76.6"/>
        <line class="st1" id="svg_8" x1="254.7" x2="254.7" y1="38.6" y2="76.6"/>
        <line class="st1" id="svg_9" x1="343.3" x2="343.3" y1="38.6" y2="76.6"/>
        <line class="st1" id="svg_10" x1="357.3" x2="357.3" y1="38.6" y2="76.6"/>
        <line class="st1" id="svg_11" x1="445.9" x2="445.9" y1="38.6" y2="76.6"/>
        <line class="st1" id="svg_12" x1="459.9" x2="459.9" y1="38.6" y2="76.6"/>
        <line class="st1" id="svg_13" x1="548.5" x2="548.5" y1="38.6" y2="76.6"/>
        <line class="st1" id="svg_14" x1="562.5" x2="562.5" y1="38.6" y2="76.6"/>
      </g>
    </g>
    <g id="train_1_">
      <path class="st3" d="m175.1,26.4l-82.3,0c0.1,-12.3 10.2,-22.2 22.6,-22.1l0,0l59.8,0" id="svg_122"/>
      <path class="st4" d="m128.3,8.6" id="svg_123"/>
      <rect class="st5" height="22.1" id="svg_124" width="1.4" x="175.1" y="4.3"/>
      <rect class="st5" height="22.1" id="svg_125" width="1.4" x="258" y="4.3"/>
      <rect class="st5" height="22.1" id="svg_126" width="1.4" x="340.8" y="4.3"/>
      <rect class="st5" height="22.1" id="svg_127" width="1.4" x="423.5" y="4.3"/>
      <g id="svg_128">
        <line class="st6" id="svg_129" x1="112.2" x2="120.4" y1="25.6" y2="25.6"/>
        <line class="st6" id="svg_130" x1="136.3" x2="163.8" y1="25.6" y2="25.6"/>
        <rect class="st4" height="4.5" id="svg_131" width="27.6" x="136.2" y="18.9"/>
        <path class="st5" d="m133.4,26.4l-10.2,0l0,-15.2c-0.1,-1.3 0.8,-2.4 2.1,-2.6l6.2,0c1.3,0.1 2.2,1.3 2.1,2.6l0,0l-0.2,15.2z" id="svg_132"/>
        <line class="st7" id="svg_133" x1="128.3" x2="128.3" y1="8.8" y2="26.4"/>
        <path class="st5" d="m141.9,9.8l15.9,0c2.1,0 3.8,1.7 3.8,3.8l0,0.3c0,2.1 -1.7,3.8 -3.8,3.8l-15.9,0c-2.1,0 -3.8,-1.7 -3.8,-3.8l0,-0.3c0,-2.1 1.7,-3.8 3.8,-3.8z" id="svg_134"/>
        <line class="st6" id="svg_135" x1="114" x2="174.9" y1="5.2" y2="5.2"/>
        <path class="st5" d="m104.2,15.6c2.1,0 3.8,-1.7 3.8,-3.8l0,0l0,-0.3c0,-2.1 -1.7,-3.8 -3.8,-3.8l0,0l-0.6,0c-3.1,2 -5.9,4.7 -7.6,7.9l8.2,0z" id="svg_136"/>
      </g>
      <path class="st8" d="m130.5,0l16.7,0c2.4,0 4.3,1.9 4.3,4.3l0,0l-25.3,0c0,-2.3 1.9,-4.3 4.3,-4.3z" id="svg_137"/>
      <path class="st8" d="m450.3,0l16.7,0c2.4,0 4.3,1.9 4.3,4.3l0,0l-25.3,0c0,-2.3 1.9,-4.3 4.3,-4.3z" id="svg_138"/>
      <rect class="st3" height="22.1" id="svg_139" width="81.5" x="176.5" y="4.3"/>
      <g id="svg_140">
        <line class="st6" id="svg_141" x1="179.7" x2="207.3" y1="25.6" y2="25.6"/>
        <line class="st6" id="svg_142" x1="223.1" x2="250.7" y1="25.6" y2="25.6"/>
        <path class="st5" d="m220.4,26.4l-10.2,0l0,-15.2c-0.1,-1.3 0.8,-2.4 2.1,-2.6l6.2,0c1.3,0.1 2.2,1.3 2.1,2.6l0,0l-0.2,15.2z" id="svg_143"/>
        <line class="st7" id="svg_144" x1="215.2" x2="215.2" y1="8.8" y2="26.4"/>
        <path class="st5" d="m185.6,9.8l15.9,0c2.1,0 3.8,1.7 3.8,3.8l0,0.3c0,2.1 -1.7,3.8 -3.8,3.8l-15.9,0c-2.1,0 -3.8,-1.7 -3.8,-3.8l0,-0.3c0.1,-2.1 1.7,-3.8 3.8,-3.8z" id="svg_145"/>
        <path class="st5" d="m228.9,9.8l15.9,0c2.1,0 3.8,1.7 3.8,3.8l0,0.3c0,2.1 -1.7,3.8 -3.8,3.8l-15.9,0c-2.1,0 -3.8,-1.7 -3.8,-3.8l0,-0.3c0,-2.1 1.7,-3.8 3.8,-3.8z" id="svg_146"/>
        <line class="st6" id="svg_147" x1="176.5" x2="257.9" y1="5.2" y2="5.2"/>
        <rect class="st4" height="4.5" id="svg_148" width="27.6" x="179.7" y="18.8"/>
        <rect class="st4" height="4.5" id="svg_149" width="27.6" x="223.1" y="18.8"/>
        <path class="st8" d="m207.9,0l16.7,0c2.4,0 4.3,1.9 4.3,4.3l-25.3,0c-0.1,-2.4 1.9,-4.3 4.3,-4.3z" id="svg_150"/>
      </g>
      <rect class="st3" height="22.1" id="svg_151" width="81.5" x="259.3" y="4.3"/>
      <g id="svg_152">
        <line class="st6" id="svg_153" x1="262.5" x2="290.1" y1="25.6" y2="25.6"/>
        <line class="st6" id="svg_154" x1="306" x2="333.6" y1="25.6" y2="25.6"/>
        <path class="st5" d="m303.3,26.4l-10.3,0l0,-15.2c-0.1,-1.3 0.8,-2.4 2.1,-2.6l6.2,0c1.3,0.1 2.2,1.3 2.1,2.6l0,0l-0.1,15.2z" id="svg_155"/>
        <line class="st7" id="svg_156" x1="298" x2="298" y1="8.8" y2="26.4"/>
        <path class="st5" d="m268.5,9.8l15.9,0c2.1,0 3.8,1.7 3.8,3.8l0,0.3c0,2.1 -1.7,3.8 -3.8,3.8l-15.9,0c-2.1,0 -3.8,-1.7 -3.8,-3.8l0,-0.3c0,-2.1 1.7,-3.8 3.8,-3.8z" id="svg_157"/>
        <path class="st5" d="m311.7,9.8l15.9,0c2.1,0 3.8,1.7 3.8,3.8l0,0.3c0,2.1 -1.7,3.8 -3.8,3.8l-15.9,0c-2.1,0 -3.8,-1.7 -3.8,-3.8l0,-0.3c0.1,-2.1 1.7,-3.8 3.8,-3.8z" id="svg_158"/>
        <line class="st6" id="svg_159" x1="259.4" x2="340.8" y1="5.2" y2="5.2"/>
        <rect class="st4" height="4.5" id="svg_160" width="27.6" x="262.5" y="18.8"/>
        <rect class="st4" height="4.5" id="svg_161" width="27.6" x="306" y="18.8"/>
        <path class="st8" d="m290.7,0l16.7,0c2.4,0 4.3,1.9 4.3,4.3l-25.3,0c-0.1,-2.4 1.9,-4.3 4.3,-4.3z" id="svg_162"/>
      </g>
      <rect class="st3" height="22.1" id="svg_163" width="81.5" x="342" y="4.3"/>
      <g id="svg_164">
        <line class="st6" id="svg_165" x1="345.2" x2="372.8" y1="25.6" y2="25.6"/>
        <line class="st6" id="svg_166" x1="388.7" x2="416.3" y1="25.6" y2="25.6"/>
        <path class="st5" d="m386,26.4l-10.2,0l0,-15.2c-0.1,-1.3 0.8,-2.4 2.1,-2.6l6.2,0c1.3,0.1 2.2,1.3 2.1,2.6l0,0l-0.2,15.2z" id="svg_167"/>
        <line class="st7" id="svg_168" x1="380.7" x2="380.7" y1="8.8" y2="26.4"/>
        <path class="st5" d="m351.2,9.8l15.8,0c2.1,0 3.8,1.7 3.8,3.8l0,0.3c0,2.1 -1.7,3.8 -3.8,3.8l-15.9,0c-2.1,0 -3.8,-1.7 -3.8,-3.8l0,-0.3c0.1,-2.1 1.8,-3.8 3.9,-3.8z" id="svg_169"/>
        <path class="st5" d="m394.4,9.8l15.9,0c2.1,0 3.8,1.7 3.8,3.8l0,0.3c0,2.1 -1.7,3.8 -3.8,3.8l-15.9,0c-2.1,0 -3.8,-1.7 -3.8,-3.8l0,-0.3c0.1,-2.1 1.7,-3.8 3.8,-3.8z" id="svg_170"/>
        <line class="st6" id="svg_171" x1="342.1" x2="423.5" y1="5.2" y2="5.2"/>
        <rect class="st4" height="4.5" id="svg_172" width="27.6" x="345.2" y="18.8"/>
        <rect class="st4" height="4.5" id="svg_173" width="27.6" x="388.7" y="18.8"/>
        <path class="st8" d="m373.4,0l16.7,0c2.4,0 4.3,1.9 4.3,4.3l-25.3,0c-0.1,-2.4 1.9,-4.3 4.3,-4.3z" id="svg_174"/>
      </g>
      <path class="st3" d="m424.9,4.3l59.8,0l0,0c12.3,-0.1 22.5,9.8 22.6,22.1l-82.3,0" id="svg_175"/>
      <g id="svg_176">
        <line class="st6" id="svg_177" x1="479.6" x2="487.8" y1="25.6" y2="25.6"/>
        <line class="st6" id="svg_178" x1="436.2" x2="463.7" y1="25.6" y2="25.6"/>
        <rect class="st4" height="4.5" id="svg_179" width="27.6" x="436.3" y="18.9"/>
        <path class="st5" d="m466.5,11.2l0,0c-0.1,-1.4 0.8,-2.5 2.1,-2.6l6.2,0c1.3,0.2 2.2,1.4 2.1,2.6l0,15.3l-10.2,0l-0.2,-15.3z" id="svg_180"/>
        <line class="st7" id="svg_181" x1="471.7" x2="471.7" y1="26.4" y2="8.8"/>
        <path class="st5" d="m461.9,13.6l0,0.3c0,2.1 -1.7,3.8 -3.8,3.8l-15.9,0c-2.1,0 -3.8,-1.7 -3.8,-3.8l0,-0.3c0,-2.1 1.7,-3.8 3.8,-3.8l15.9,0c2.1,0 3.8,1.7 3.8,3.8z" id="svg_182"/>
        <line class="st6" id="svg_183" x1="425.1" x2="486" y1="5.2" y2="5.2"/>
        <path class="st5" d="m504.1,15.7c-1.8,-3.2 -4.5,-6 -7.6,-7.9l-0.6,0l0,0c-2.1,0 -3.8,1.7 -3.8,3.8l0,0.3l0,0c0,2.1 1.7,3.8 3.8,3.8l8.2,0z" id="svg_184"/>
        <text x="153" y="24" class="st2"  font-size="8" font-family="sans-serif">Patna Metro</text>
        <text x="403" y="24" class="st2"  font-size="8" font-family="sans-serif">Patna Metro</text>
      </g>
    </g>
  </g>
</svg>